<?xml version="1.0" encoding="utf-8" standalone="no"?>
<!DOCTYPE svg PUBLIC "-//W3C//DTD SVG 1.1//EN"
  "http://www.w3.org/Graphics/SVG/1.1/DTD/svg11.dtd">
<!-- Created with matplotlib (http://matplotlib.org/) -->
<svg height="152pt" version="1.1" viewBox="0 0 221 152" width="221pt" xmlns="http://www.w3.org/2000/svg" xmlns:xlink="http://www.w3.org/1999/xlink">
 <defs>
  <style type="text/css">
*{stroke-linecap:butt;stroke-linejoin:round;}
  </style>
 </defs>
 <g id="figure_1">
  <g id="patch_1">
   <path d="
M0 152.958
L221.027 152.958
L221.027 0
L0 0
z
" style="fill:none;"/>
  </g>
  <g id="axes_1">
   <g id="line2d_1">
    <path clip-path="url(#p742a3b87c4)" d="
M50.3275 125.195
L50.3275 94.595
L50.3275 94.595
M50.3275 63.995
L50.3275 63.995
L50.3275 33.395" style="fill:none;stroke:#000000;stroke-linecap:round;"/>
   </g>
   <g id="line2d_2">
    <path clip-path="url(#p742a3b87c4)" d="
M53.5675 86.945
L47.0875 86.945" style="fill:none;stroke:#000000;stroke-linecap:round;"/>
   </g>
   <g id="line2d_3">
    <path clip-path="url(#p742a3b87c4)" d="
M50.3275 74.705
L50.3275 68.585" style="fill:none;stroke:#000000;stroke-linecap:round;"/>
   </g>
   <g id="line2d_4">
    <path clip-path="url(#p742a3b87c4)" d="
M53.5675 71.645
L47.0875 71.645" style="fill:none;stroke:#000000;stroke-linecap:round;"/>
   </g>
   <g id="line2d_5">
    <path clip-path="url(#p742a3b87c4)" d="
M50.3275 33.395
L82.7275 33.395
L85.4275 25.745
L90.8275 41.045
L96.2275 25.745
L101.627 41.045
L107.028 25.745
L112.428 41.045
L115.127 33.395
L147.527 33.395" style="fill:none;stroke:#000000;stroke-linecap:round;"/>
   </g>
   <g id="line2d_6">
    <path clip-path="url(#p742a3b87c4)" d="
M147.527 33.395
L171.827 33.395
L196.127 33.395" style="fill:none;stroke:#000000;stroke-linecap:round;"/>
   </g>
   <g id="line2d_7">
    <path clip-path="url(#p742a3b87c4)" d="
M196.127 33.395" style="fill:none;stroke:#000000;stroke-linecap:round;"/>
   </g>
   <g id="line2d_8">
    <path clip-path="url(#p742a3b87c4)" d="
M147.527 33.395
L147.527 63.995
L155.627 66.545
L139.428 71.645
L155.627 76.745
L139.427 81.845
L155.627 86.945
L139.427 92.045
L147.527 94.595
L147.527 125.195" style="fill:none;stroke:#000000;stroke-linecap:round;"/>
   </g>
   <g id="line2d_9">
    <path clip-path="url(#p742a3b87c4)" d="
M147.527 125.195
L98.9275 125.195
L50.3275 125.195" style="fill:none;stroke:#000000;stroke-linecap:round;"/>
   </g>
   <g id="line2d_10">
    <path clip-path="url(#p742a3b87c4)" d="
M50.3275 125.195
L50.3275 137.435
L42.2275 137.435
L58.4275 137.435
M44.6575 141.107
L55.9975 141.107
M48.7075 144.779
L51.9475 144.779" style="fill:none;stroke:#000000;stroke-linecap:round;"/>
   </g>
   <g id="patch_2">
    <path clip-path="url(#p742a3b87c4)" d="
M50.3275 94.595
C54.6238 94.595 58.7447 92.9829 61.7826 90.1137
C64.8206 87.2446 66.5275 83.3526 66.5275 79.295
C66.5275 75.2374 64.8206 71.3454 61.7826 68.4763
C58.7447 65.6071 54.6238 63.995 50.3275 63.995
C46.0312 63.995 41.9103 65.6071 38.8724 68.4763
C35.8344 71.3454 34.1275 75.2374 34.1275 79.295
C34.1275 83.3526 35.8344 87.2446 38.8724 90.1137
C41.9103 92.9829 46.0312 94.595 50.3275 94.595
z
" style="fill:none;stroke:#000000;"/>
   </g>
   <g id="patch_3">
    <path clip-path="url(#p742a3b87c4)" d="
M196.127 35.69
C196.772 35.69 197.39 35.4482 197.846 35.0178
C198.301 34.5874 198.558 34.0036 198.558 33.395
C198.558 32.7864 198.301 32.2026 197.846 31.7722
C197.39 31.3418 196.772 31.1 196.127 31.1
C195.483 31.1 194.865 31.3418 194.409 31.7722
C193.954 32.2026 193.697 32.7864 193.697 33.395
C193.697 34.0036 193.954 34.5874 194.409 35.0178
C194.865 35.4482 195.483 35.69 196.127 35.69
z
" style="fill:#ffffff;stroke:#000000;"/>
   </g>
   <g id="text_1">
    <!-- Vin -->
    <defs>
     <path d="
M54.8906 33.0156
L54.8906 0
L45.9062 0
L45.9062 32.7188
Q45.9062 40.4844 42.875 44.3281
Q39.8438 48.1875 33.7969 48.1875
Q26.5156 48.1875 22.3125 43.5469
Q18.1094 38.9219 18.1094 30.9062
L18.1094 0
L9.07812 0
L9.07812 54.6875
L18.1094 54.6875
L18.1094 46.1875
Q21.3438 51.125 25.7031 53.5625
Q30.0781 56 35.7969 56
Q45.2188 56 50.0469 50.1719
Q54.8906 44.3438 54.8906 33.0156" id="DejaVuSans-6e"/>
     <path d="
M28.6094 0
L0.78125 72.9062
L11.0781 72.9062
L34.1875 11.5312
L57.3281 72.9062
L67.5781 72.9062
L39.7969 0
z
" id="DejaVuSans-56"/>
     <path d="
M9.42188 54.6875
L18.4062 54.6875
L18.4062 0
L9.42188 0
z

M9.42188 75.9844
L18.4062 75.9844
L18.4062 64.5938
L9.42188 64.5938
z
" id="DejaVuSans-69"/>
    </defs>
    <g transform="translate(7.2 83.71)scale(0.16 -0.16)">
     <use xlink:href="#DejaVuSans-56"/>
     <use x="66.158203125" xlink:href="#DejaVuSans-69"/>
     <use x="93.94140625" xlink:href="#DejaVuSans-6e"/>
    </g>
   </g>
   <g id="text_2">
    <!-- R1 -->
    <defs>
     <path d="
M12.4062 8.29688
L28.5156 8.29688
L28.5156 63.9219
L10.9844 60.4062
L10.9844 69.3906
L28.4219 72.9062
L38.2812 72.9062
L38.2812 8.29688
L54.3906 8.29688
L54.3906 0
L12.4062 0
z
" id="DejaVuSans-31"/>
     <path d="
M44.3906 34.1875
Q47.5625 33.1094 50.5625 29.5938
Q53.5625 26.0781 56.5938 19.9219
L66.6094 0
L56 0
L46.6875 18.7031
Q43.0625 26.0312 39.6719 28.4219
Q36.2812 30.8125 30.4219 30.8125
L19.6719 30.8125
L19.6719 0
L9.8125 0
L9.8125 72.9062
L32.0781 72.9062
Q44.5781 72.9062 50.7344 67.6719
Q56.8906 62.4531 56.8906 51.9062
Q56.8906 45.0156 53.6875 40.4688
Q50.4844 35.9375 44.3906 34.1875
M19.6719 64.7969
L19.6719 38.9219
L32.0781 38.9219
Q39.2031 38.9219 42.8438 42.2188
Q46.4844 45.5156 46.4844 51.9062
Q46.4844 58.2969 42.8438 61.5469
Q39.2031 64.7969 32.0781 64.7969
z
" id="DejaVuSans-52"/>
    </defs>
    <g transform="translate(89.8025 19.3575)scale(0.16 -0.16)">
     <use xlink:href="#DejaVuSans-52"/>
     <use x="69.482421875" xlink:href="#DejaVuSans-31"/>
    </g>
   </g>
   <g id="text_3">
    <!-- Vout -->
    <defs>
     <path d="
M30.6094 48.3906
Q23.3906 48.3906 19.1875 42.75
Q14.9844 37.1094 14.9844 27.2969
Q14.9844 17.4844 19.1562 11.8438
Q23.3438 6.20312 30.6094 6.20312
Q37.7969 6.20312 41.9844 11.8594
Q46.1875 17.5312 46.1875 27.2969
Q46.1875 37.0156 41.9844 42.7031
Q37.7969 48.3906 30.6094 48.3906
M30.6094 56
Q42.3281 56 49.0156 48.375
Q55.7188 40.7656 55.7188 27.2969
Q55.7188 13.875 49.0156 6.21875
Q42.3281 -1.42188 30.6094 -1.42188
Q18.8438 -1.42188 12.1719 6.21875
Q5.51562 13.875 5.51562 27.2969
Q5.51562 40.7656 12.1719 48.375
Q18.8438 56 30.6094 56" id="DejaVuSans-6f"/>
     <path d="
M8.5 21.5781
L8.5 54.6875
L17.4844 54.6875
L17.4844 21.9219
Q17.4844 14.1562 20.5 10.2656
Q23.5312 6.39062 29.5938 6.39062
Q36.8594 6.39062 41.0781 11.0312
Q45.3125 15.6719 45.3125 23.6875
L45.3125 54.6875
L54.2969 54.6875
L54.2969 0
L45.3125 0
L45.3125 8.40625
Q42.0469 3.42188 37.7188 1
Q33.4062 -1.42188 27.6875 -1.42188
Q18.2656 -1.42188 13.375 4.4375
Q8.5 10.2969 8.5 21.5781
M31.1094 56
z
" id="DejaVuSans-75"/>
     <path d="
M18.3125 70.2188
L18.3125 54.6875
L36.8125 54.6875
L36.8125 47.7031
L18.3125 47.7031
L18.3125 18.0156
Q18.3125 11.3281 20.1406 9.42188
Q21.9688 7.51562 27.5938 7.51562
L36.8125 7.51562
L36.8125 0
L27.5938 0
Q17.1875 0 13.2344 3.875
Q9.28125 7.76562 9.28125 18.0156
L9.28125 47.7031
L2.6875 47.7031
L2.6875 54.6875
L9.28125 54.6875
L9.28125 70.2188
z
" id="DejaVuSans-74"/>
    </defs>
    <g transform="translate(178.4275 24.7125)scale(0.16 -0.16)">
     <use xlink:href="#DejaVuSans-56"/>
     <use x="60.658203125" xlink:href="#DejaVuSans-6f"/>
     <use x="121.83984375" xlink:href="#DejaVuSans-75"/>
     <use x="185.21875" xlink:href="#DejaVuSans-74"/>
    </g>
   </g>
   <g id="text_4">
    <!-- R2 -->
    <defs>
     <path d="
M19.1875 8.29688
L53.6094 8.29688
L53.6094 0
L7.32812 0
L7.32812 8.29688
Q12.9375 14.1094 22.625 23.8906
Q32.3281 33.6875 34.8125 36.5312
Q39.5469 41.8438 41.4219 45.5312
Q43.3125 49.2188 43.3125 52.7812
Q43.3125 58.5938 39.2344 62.25
Q35.1562 65.9219 28.6094 65.9219
Q23.9688 65.9219 18.8125 64.3125
Q13.6719 62.7031 7.8125 59.4219
L7.8125 69.3906
Q13.7656 71.7812 18.9375 73
Q24.125 74.2188 28.4219 74.2188
Q39.75 74.2188 46.4844 68.5469
Q53.2188 62.8906 53.2188 53.4219
Q53.2188 48.9219 51.5312 44.8906
Q49.8594 40.875 45.4062 35.4062
Q44.1875 33.9844 37.6406 27.2188
Q31.1094 20.4531 19.1875 8.29688" id="DejaVuSans-32"/>
    </defs>
    <g transform="translate(118.0625 83.71)scale(0.16 -0.16)">
     <use xlink:href="#DejaVuSans-52"/>
     <use x="69.482421875" xlink:href="#DejaVuSans-32"/>
    </g>
   </g>
  </g>
 </g>
 <defs>
  <clipPath id="p742a3b87c4">
   <rect height="124.9857" width="172.6515" x="33.3175" y="20.7725"/>
  </clipPath>
 </defs>
</svg>
