<?xml version="1.0" encoding="UTF-8" standalone="no"?>
<svg xmlns="http://www.w3.org/2000/svg"
     xmlns:xlink="http://www.w3.org/1999/xlink"
     width="400px" height="400px" viewBox="0 0 576 432">
<title>glps_renderer figure</title>
<desc>
Creator: GL2PS 1.3.8, (C) 1999-2012 C. Geuzaine
For: Octave
CreationDate: Mon Dec 29 17:51:44 2014
</desc>
<defs>
</defs>
<g shape-rendering="crispEdges">
<polygon fill="#ffffff" points="74.88,384.48 521.28,384.48 74.88,32.4"/>
<polygon fill="#ffffff" points="521.28,384.48 521.28,32.4 74.88,32.4"/>
<polyline fill="none" stroke="#000000" stroke-width="0.5" stroke-dasharray="16,0" points="74.88,384.48 521.28,384.48"/>
<polyline fill="none" stroke="#000000" stroke-width="0.5" stroke-dasharray="16,0" points="74.88,32.4 521.28,32.4"/>
<polyline fill="none" stroke="#000000" stroke-width="0.5" stroke-dasharray="16,0" points="74.88,32.4 521.28,32.4"/>
<polyline fill="none" stroke="#000000" stroke-width="0.5" stroke-dasharray="16,0" points="74.88,384.48 521.28,384.48"/>
<polyline fill="none" stroke="#000000" stroke-width="0.5" stroke-dasharray="16,0" points="74.88,384.48 74.88,32.4"/>
<polyline fill="none" stroke="#000000" stroke-width="0.5" stroke-dasharray="16,0" points="521.28,384.48 521.28,32.4"/>
<polyline fill="none" stroke="#000000" stroke-width="0.5" stroke-dasharray="16,0" points="521.28,384.48 521.28,32.4"/>
<polyline fill="none" stroke="#000000" stroke-width="0.5" stroke-dasharray="16,0" points="74.88,384.48 74.88,32.4 74.88,32.4"/>
<polyline fill="none" stroke="#000000" stroke-width="0.5" stroke-dasharray="16,0" points="521.28,32.4 521.28,32.4"/>
<polyline fill="none" stroke="#000000" stroke-width="0.5" stroke-dasharray="16,0" points="521.28,384.48 521.28,384.48"/>
<polyline fill="none" stroke="#000000" stroke-width="0.5" stroke-dasharray="16,0" points="74.88,384.48 74.88,384.48 74.88,380.015"/>
<polyline fill="none" stroke="#000000" stroke-width="0.5" stroke-dasharray="16,0" points="74.88,32.4 74.88,36.865"/>
<polyline fill="none" stroke="#000000" stroke-width="0.5" stroke-dasharray="16,0" points="164.16,384.48 164.16,380.015"/>
<polyline fill="none" stroke="#000000" stroke-width="0.5" stroke-dasharray="16,0" points="164.16,32.4 164.16,36.865"/>
<polyline fill="none" stroke="#000000" stroke-width="0.5" stroke-dasharray="16,0" points="253.44,384.48 253.44,380.015"/>
<polyline fill="none" stroke="#000000" stroke-width="0.5" stroke-dasharray="16,0" points="253.44,32.4 253.44,36.865"/>
<polyline fill="none" stroke="#000000" stroke-width="0.5" stroke-dasharray="16,0" points="342.72,384.48 342.72,380.015"/>
<polyline fill="none" stroke="#000000" stroke-width="0.5" stroke-dasharray="16,0" points="342.72,32.4 342.72,36.865"/>
<polyline fill="none" stroke="#000000" stroke-width="0.5" stroke-dasharray="16,0" points="432,384.48 432,380.015"/>
<polyline fill="none" stroke="#000000" stroke-width="0.5" stroke-dasharray="16,0" points="432,32.4 432,36.865"/>
<polyline fill="none" stroke="#000000" stroke-width="0.5" stroke-dasharray="16,0" points="521.28,384.48 521.28,380.015"/>
<polyline fill="none" stroke="#000000" stroke-width="0.5" stroke-dasharray="16,0" points="521.28,32.4 521.28,36.865"/>
<text fill="#000000" x="74.88" y="389.481" font-size="14" text-anchor="middle" baseline-shift="-14" font-family="Helvetica">0</text>
<text fill="#000000" x="164.16" y="389.481" font-size="14" text-anchor="middle" baseline-shift="-14" font-family="Helvetica">2e+07</text>
<text fill="#000000" x="253.44" y="389.481" font-size="14" text-anchor="middle" baseline-shift="-14" font-family="Helvetica">4e+07</text>
<text fill="#000000" x="342.72" y="389.481" font-size="14" text-anchor="middle" baseline-shift="-14" font-family="Helvetica">6e+07</text>
<text fill="#000000" x="432" y="389.481" font-size="14" text-anchor="middle" baseline-shift="-14" font-family="Helvetica">8e+07</text>
<text fill="#000000" x="521.28" y="389.481" font-size="14" text-anchor="middle" baseline-shift="-14" font-family="Helvetica">1e+08</text>
<polyline fill="none" stroke="#000000" stroke-width="0.5" stroke-dasharray="16,0" points="74.88,384.48 79.348,384.48"/>
<polyline fill="none" stroke="#000000" stroke-width="0.5" stroke-dasharray="16,0" points="521.28,384.48 516.812,384.48"/>
<polyline fill="none" stroke="#000000" stroke-width="0.5" stroke-dasharray="16,0" points="74.88,314.064 79.348,314.064"/>
<polyline fill="none" stroke="#000000" stroke-width="0.5" stroke-dasharray="16,0" points="521.28,314.064 516.812,314.064"/>
<polyline fill="none" stroke="#000000" stroke-width="0.5" stroke-dasharray="16,0" points="74.88,243.648 79.348,243.648"/>
<polyline fill="none" stroke="#000000" stroke-width="0.5" stroke-dasharray="16,0" points="521.28,243.648 516.812,243.648"/>
<polyline fill="none" stroke="#000000" stroke-width="0.5" stroke-dasharray="16,0" points="74.88,173.232 79.348,173.232"/>
<polyline fill="none" stroke="#000000" stroke-width="0.5" stroke-dasharray="16,0" points="521.28,173.232 516.812,173.232"/>
<polyline fill="none" stroke="#000000" stroke-width="0.5" stroke-dasharray="16,0" points="74.88,102.816 79.348,102.816"/>
<polyline fill="none" stroke="#000000" stroke-width="0.5" stroke-dasharray="16,0" points="521.28,102.816 516.812,102.816"/>
<polyline fill="none" stroke="#000000" stroke-width="0.5" stroke-dasharray="16,0" points="74.88,32.4 79.348,32.4"/>
<polyline fill="none" stroke="#000000" stroke-width="0.5" stroke-dasharray="16,0" points="521.28,32.4 516.812,32.4"/>
<text fill="#000000" x="69.8755" y="384.48" font-size="14" text-anchor="end" baseline-shift="-7" font-family="Helvetica">0</text>
<text fill="#000000" x="69.8755" y="314.064" font-size="14" text-anchor="end" baseline-shift="-7" font-family="Helvetica">0.2</text>
<text fill="#000000" x="69.8755" y="243.648" font-size="14" text-anchor="end" baseline-shift="-7" font-family="Helvetica">0.4</text>
<text fill="#000000" x="69.8755" y="173.232" font-size="14" text-anchor="end" baseline-shift="-7" font-family="Helvetica">0.6</text>
<text fill="#000000" x="69.8755" y="102.816" font-size="14" text-anchor="end" baseline-shift="-7" font-family="Helvetica">0.8</text>
<text fill="#000000" x="69.8755" y="32.4" font-size="14" text-anchor="end" baseline-shift="-7" font-family="Helvetica">1</text>
<text fill="#000000" x="298.08" y="404.481" font-size="14" text-anchor="middle" baseline-shift="-14" font-family="Helvetica">Frequency (Hz)</text>
<text fill="#000000" x="47.8755" y="208.44" font-size="14" transform="rotate(-90, 47.8755, 208.44)" text-anchor="middle" baseline-shift="0" font-family="Helvetica">Amplitude (V/V)</text>
<text fill="#000000" x="298.08" y="22.4" font-size="14" text-anchor="middle" baseline-shift="0" font-family="Helvetica">RC Filter Output x-y</text>
<polyline fill="none" stroke="#0000ff" stroke-width="3" points="74.88,33.7845 74.88,34.5893 74.88,35.8571 74.88,37.8479 74.88,40.9569 74.88,45.7717 74.88,53.1321 74.88,64.1642 74.88,80.2195 74.88,102.611 74.8801,132.054 74.8801,167.907 74.8801,207.702 74.8801,247.573 74.8801,283.624 74.8801,313.322 74.8802,335.964 74.8802,352.228 74.8803,363.418 74.8804,370.891 74.8804,375.782 74.8806,378.941 74.8807,380.965 74.8809,382.254 74.8811,383.072 74.8814,383.59 74.8818,383.918 74.8822,384.125 74.8828,384.256 74.8835,384.339 74.8845,384.391 74.8856,384.424 74.8871,384.445 74.8889,384.458 74.8912,384.466 74.8941,384.471 74.8978,384.474 74.9024,384.476 74.9082,384.478 74.9155,384.479 74.9246,384.479 74.9362,384.479 74.9507,384.48 74.9691,384.48 74.9921,384.48 75.0211,384.48 75.0577,384.48 75.1037,384.48 75.1617,384.48 75.2346,384.48 75.3264,384.48 75.442,384.48 75.5875,384.48 75.7707,384.48 76.0013,384.48 76.2916,384.48 76.6572,384.48 77.1173,384.48 77.6966,384.48 78.4259,384.48 79.344,384.48 80.4998,384.48 81.955,384.48 83.7868,384.48 86.093,384.48 88.9964,384.48 92.6515,384.48 97.253,384.48 103.046,384.48 110.339,384.48 119.52,384.48 131.078,384.48 145.63,384.48 163.948,384.48 187.011,384.48 216.044,384.48 252.595,384.48 298.61,384.48 356.539,384.48 429.468,384.48 521.28,384.48"/>
</g>
</svg>
